# xmcd
# 
# Track frame offsets:
#     150
#     14609
#     28913
#     40614
#     52757
#     70007
#     89444
#     102477
#     113264
#     126192
#     139416
#     150223
#     167903
#     182973
#     193628
# 
# Disc length: 2755
# 
# Revision: 1
# Processed by: cddbd v1.5.2PL0 Copyright (c) Steve Scherf et al.
# Submitted via: fre:ac v1.0.17
# 
DISCID=c30ac10f
DTITLE=Various Artist - Classic Country 1975-1979 Disc 1
DYEAR=0
DGENRE=Country
TTITLE0=Bellamy Brothers - If I Said You Had A Beautiful Body
TTITLE1=Glen Campbell - Rhinestone Cowboy
TTITLE2=Freddy Fender - Before The Next Teardrop Falls
TTITLE3=Dolly Parton - Jolene
TTITLE4=C W McCall - Convoy
TTITLE5=Kenny Rogers - Coward Of The County
TTITLE6=Conway Twitty - Happy Birthday Darlin
TTITLE7=George Jones And Tammy Wynette - Near you
TTITLE8=Eddie Rabbit - Every Which Way But Loose
TTITLE9=Crystal Gayle - Talking In Your Sleep
TTITLE10=T G Sheppard - Happy Together
TTITLE11=Linda Ronstadt - Blue Bayou
TTITLE12=Waylon Jennings - Luckenbach Texas
TTITLE13=Willie Nelson - Eyes Crying In The Rain
TTITLE14=Dr Hook - Sharing The Night Together
EXTD=
EXTT0=
EXTT1=
EXTT2=
EXTT3=
EXTT4=
EXTT5=
EXTT6=
EXTT7=
EXTT8=
EXTT9=
EXTT10=
EXTT11=
EXTT12=
EXTT13=
EXTT14=
PLAYORDER=
